Topmarks-Bold.ufo
<glyph name="exclam" format="1">
  <advance width="782"/>
  <unicode hex="0021"/>
  <outline>
    <contour>
      <point x="391" y="-12" type="curve" smooth="yes"/>
      <point x="295" y="-12"/>
      <point x="226" y="54"/>
      <point x="226" y="149" type="curve" smooth="yes"/>
      <point x="226" y="241"/>
      <point x="295" y="306"/>
      <point x="391" y="306" type="curve" smooth="yes"/>
      <point x="487" y="306"/>
      <point x="556" y="241"/>
      <point x="556" y="146" type="curve" smooth="yes"/>
      <point x="556" y="52"/>
      <point x="487" y="-12"/>
    </contour>
    <contour>
      <point x="319" y="498" type="line"/>
      <point x="228" y="1456" type="line"/>
      <point x="542" y="1456" type="line"/>
      <point x="448" y="498" type="line"/>
    </contour>
  </outline>
</glyph>
<glyph name="ampersand" format="1">
  <advance width="1590"/>
  <unicode hex="0026"/>
  <outline>
    <contour>
      <point x="672" y="-21" type="curve" smooth="yes"/>
      <point x="888" y="-21"/>
      <point x="998" y="42"/>
      <point x="1109" y="159" type="curve"/>
      <point x="1192" y="72"/>
      <point x="1316" y="-14"/>
      <point x="1469" y="-36" type="curve"/>
      <point x="1576" y="112" type="line"/>
      <point x="1381" y="153"/>
      <point x="1310" y="214"/>
      <point x="1237" y="289" type="curve"/>
      <point x="1348" y="431"/>
      <point x="1426" y="632"/>
      <point x="1435" y="871" type="curve"/>
      <point x="1243" y="919" type="line"/>
      <point x="1243" y="746"/>
      <point x="1194" y="563"/>
      <point x="1101" y="436" type="curve"/>
      <point x="767" y="792" type="line"/>
      <point x="901" y="867"/>
      <point x="1041" y="989"/>
      <point x="1041" y="1191" type="curve" smooth="yes"/>
      <point x="1041" y="1376"/>
      <point x="873" y="1483"/>
      <point x="672" y="1483" type="curve" smooth="yes"/>
      <point x="487" y="1483"/>
      <point x="323" y="1361"/>
      <point x="323" y="1162" type="curve" smooth="yes"/>
      <point x="323" y="1010"/>
      <point x="393" y="928"/>
      <point x="477" y="837" type="curve"/>
      <point x="311" y="741"/>
      <point x="146" y="653"/>
      <point x="146" y="397" type="curve" smooth="yes"/>
      <point x="146" y="126"/>
      <point x="373" y="-21"/>
    </contour>
    <contour>
      <point x="688" y="178" type="curve" smooth="yes"/>
      <point x="535" y="178"/>
      <point x="379" y="225"/>
      <point x="379" y="408" type="curve" smooth="yes"/>
      <point x="379" y="571"/>
      <point x="480" y="618"/>
      <point x="597" y="684" type="curve"/>
      <point x="970" y="293" type="line"/>
      <point x="889" y="209"/>
      <point x="817" y="178"/>
    </contour>
    <contour>
      <point x="648" y="930" type="curve"/>
      <point x="585" y="996"/>
      <point x="525" y="1063"/>
      <point x="525" y="1174" type="curve" smooth="yes"/>
      <point x="525" y="1269"/>
      <point x="595" y="1315"/>
      <point x="682" y="1315" type="curve" smooth="yes"/>
      <point x="769" y="1315"/>
      <point x="841" y="1268"/>
      <point x="841" y="1174" type="curve" smooth="yes"/>
      <point x="841" y="1067"/>
      <point x="737" y="981"/>
    </contour>
  </outline>
</glyph>
<glyph name="quotesingle" format="1">
  <advance width="584"/>
  <unicode hex="0027"/>
  <outline>
    <contour>
      <point x="223" y="908" type="line"/>
      <point x="181" y="1480" type="line"/>
      <point x="402" y="1480" type="line"/>
      <point x="372" y="908" type="line"/>
    </contour>
  </outline>
</glyph>
<glyph name="comma" format="1">
  <advance width="612"/>
  <unicode hex="002C"/>
  <outline>
    <contour>
      <point x="138" y="-297" type="line"/>
      <point x="228" y="255" type="line"/>
      <point x="483" y="255" type="line"/>
      <point x="292" y="-297" type="line"/>
    </contour>
  </outline>
</glyph>
<glyph name="hyphen" format="1">
  <advance width="1115"/>
  <unicode hex="002D"/>
  <outline>
    <contour>
      <point x="168" y="640" type="line"/>
      <point x="168" y="837" type="line"/>
      <point x="947" y="837" type="line"/>
      <point x="947" y="640" type="line"/>
    </contour>
  </outline>
</glyph>
<glyph name="slash" format="1">
  <advance width="942"/>
  <unicode hex="002F"/>
  <outline>
    <contour>
      <point x="77" y="0" type="line"/>
      <point x="672" y="1470" type="line"/>
      <point x="864" y="1470" type="line"/>
      <point x="277" y="0" type="line"/>
    </contour>
  </outline>
</glyph>
<glyph name="one" format="1">
  <advance width="1282"/>
  <unicode hex="0031"/>
  <outline>
    <contour>
      <point x="516" y="0" type="line"/>
      <point x="516" y="1456" type="line"/>
      <point x="766" y="1456" type="line"/>
      <point x="766" y="0" type="line"/>
    </contour>
  </outline>
</glyph>
<glyph name="two" format="1">
  <advance width="1254"/>
  <unicode hex="0032"/>
  <outline>
    <contour>
      <point x="616" y="1480" type="curve" smooth="yes"/>
      <point x="847" y="1480"/>
      <point x="1076" y="1336"/>
      <point x="1076" y="1027" type="curve" smooth="yes"/>
      <point x="1076" y="863"/>
      <point x="965" y="709"/>
      <point x="819" y="543" type="curve" smooth="yes"/>
      <point x="518" y="200" type="line"/>
      <point x="1063" y="200" type="line"/>
      <point x="1063" y="0" type="line"/>
      <point x="211" y="0" type="line"/>
      <point x="211" y="192" type="line"/>
      <point x="656" y="685" type="line" smooth="yes"/>
      <point x="773" y="815"/>
      <point x="827" y="940"/>
      <point x="827" y="1041" type="curve" smooth="yes"/>
      <point x="827" y="1178"/>
      <point x="732" y="1272"/>
      <point x="595" y="1272" type="curve" smooth="yes"/>
      <point x="493" y="1272"/>
      <point x="396" y="1215"/>
      <point x="306" y="1112" type="curve"/>
      <point x="150" y="1246" type="line"/>
      <point x="264" y="1404"/>
      <point x="451" y="1480"/>
    </contour>
  </outline>
</glyph>
<glyph name="four" format="1">
  <advance width="1282"/>
  <unicode hex="0034"/>
  <outline>
    <contour>
      <point x="982" y="868" type="line"/>
      <point x="982" y="518" type="line"/>
      <point x="1179" y="518" type="line"/>
      <point x="1179" y="327" type="line"/>
      <point x="982" y="327" type="line"/>
      <point x="982" y="0" type="line"/>
      <point x="772" y="0" type="line"/>
      <point x="772" y="327" type="line"/>
      <point x="154" y="327" type="line"/>
      <point x="154" y="504" type="line"/>
      <point x="520" y="1456" type="line"/>
      <point x="743" y="1456" type="line"/>
      <point x="415" y="518" type="line"/>
      <point x="772" y="518" type="line"/>
      <point x="772" y="868" type="line"/>
    </contour>
  </outline>
</glyph>
<glyph name="six" format="1">
  <advance width="1282"/>
  <unicode hex="0036"/>
  <outline>
    <contour>
      <point x="685" y="-24" type="curve" smooth="yes"/>
      <point x="439" y="-24"/>
      <point x="174" y="134"/>
      <point x="174" y="537" type="curve" smooth="yes"/>
      <point x="174" y="955"/>
      <point x="332" y="1370"/>
      <point x="900" y="1530" type="curve"/>
      <point x="976" y="1328" type="line"/>
      <point x="695" y="1242"/>
      <point x="519" y="1098"/>
      <point x="451" y="832" type="curve"/>
      <point x="529" y="905"/>
      <point x="629" y="940"/>
      <point x="729" y="939" type="curve" smooth="yes"/>
      <point x="947" y="937"/>
      <point x="1166" y="769"/>
      <point x="1166" y="468" type="curve" smooth="yes"/>
      <point x="1166" y="140"/>
      <point x="915" y="-24"/>
    </contour>
    <contour>
      <point x="678" y="180" type="curve" smooth="yes"/>
      <point x="805" y="180"/>
      <point x="933" y="272"/>
      <point x="933" y="453" type="curve" smooth="yes"/>
      <point x="933" y="649"/>
      <point x="814" y="736"/>
      <point x="685" y="736" type="curve" smooth="yes"/>
      <point x="558" y="736"/>
      <point x="421" y="653"/>
      <point x="421" y="455" type="curve" smooth="yes"/>
      <point x="421" y="273"/>
      <point x="550" y="180"/>
    </contour>
  </outline>
</glyph>
<glyph name="seven" format="1">
  <advance width="1282"/>
  <unicode hex="0037"/>
  <outline>
    <contour>
      <point x="418" y="0" type="line"/>
      <point x="887" y="1257" type="line"/>
      <point x="230" y="1257" type="line"/>
      <point x="230" y="1456" type="line"/>
      <point x="1138" y="1456" type="line"/>
      <point x="1138" y="1275" type="line"/>
      <point x="676" y="0" type="line"/>
    </contour>
  </outline>
</glyph>
<glyph name="eight" format="1">
  <advance width="1254"/>
  <unicode hex="0038"/>
  <outline>
    <contour>
      <point x="1108" y="353" type="curve" smooth="yes"/>
      <point x="1108" y="156"/>
      <point x="983" y="-24"/>
      <point x="642" y="-24" type="curve" smooth="yes"/>
      <point x="321" y="-24"/>
      <point x="176" y="135"/>
      <point x="176" y="360" type="curve" smooth="yes"/>
      <point x="176" y="539"/>
      <point x="259" y="653"/>
      <point x="555" y="805" type="curve" smooth="yes"/>
      <point x="810" y="936"/>
      <point x="853" y="1013"/>
      <point x="853" y="1122" type="curve" smooth="yes"/>
      <point x="853" y="1239"/>
      <point x="759" y="1292"/>
      <point x="646" y="1292" type="curve" smooth="yes"/>
      <point x="524" y="1292"/>
      <point x="437" y="1231"/>
      <point x="437" y="1122" type="curve" smooth="yes"/>
      <point x="437" y="961"/>
      <point x="544" y="906"/>
      <point x="750" y="802" type="curve" smooth="yes"/>
      <point x="988" y="682"/>
      <point x="1108" y="533"/>
    </contour>
    <contour>
      <point x="206" y="1107" type="curve" smooth="yes"/>
      <point x="206" y="1352"/>
      <point x="390" y="1480"/>
      <point x="642" y="1480" type="curve" smooth="yes"/>
      <point x="932" y="1480"/>
      <point x="1077" y="1305"/>
      <point x="1077" y="1107" type="curve" smooth="yes"/>
      <point x="1077" y="952"/>
      <point x="940" y="817"/>
      <point x="710" y="694" type="curve" smooth="yes"/>
      <point x="520" y="593"/>
      <point x="417" y="471"/>
      <point x="417" y="359" type="curve" smooth="yes"/>
      <point x="417" y="251"/>
      <point x="494" y="168"/>
      <point x="644" y="168" type="curve" smooth="yes"/>
      <point x="811" y="168"/>
      <point x="879" y="251"/>
      <point x="879" y="356" type="curve" smooth="yes"/>
      <point x="879" y="472"/>
      <point x="834" y="547"/>
      <point x="556" y="690" type="curve" smooth="yes"/>
      <point x="464" y="737"/>
      <point x="206" y="825"/>
    </contour>
  </outline>
</glyph>
<glyph name="semicolon" format="1">
  <advance width="627"/>
  <unicode hex="003B"/>
  <outline>
    <contour>
      <point x="226" y="779" type="line"/>
      <point x="226" y="1026" type="line"/>
      <point x="481" y="1026" type="line"/>
      <point x="481" y="779" type="line"/>
    </contour>
    <contour>
      <point x="136" y="-297" type="line"/>
      <point x="226" y="255" type="line"/>
      <point x="481" y="255" type="line"/>
      <point x="290" y="-297" type="line"/>
    </contour>
  </outline>
</glyph>
<glyph name="less" format="1">
  <advance width="1124"/>
  <unicode hex="003C"/>
  <outline>
    <contour>
      <point x="1034" y="84" type="line"/>
      <point x="85" y="518" type="line"/>
      <point x="85" y="645" type="line"/>
      <point x="1038" y="1098" type="line"/>
      <point x="1038" y="897" type="line"/>
      <point x="403" y="585" type="line"/>
      <point x="1034" y="286" type="line"/>
    </contour>
  </outline>
</glyph>
<glyph name="equal" format="1">
  <advance width="1210"/>
  <unicode hex="003D"/>
  <outline>
    <contour>
      <point x="192" y="853" type="line"/>
      <point x="192" y="1026" type="line"/>
      <point x="1018" y="1026" type="line"/>
      <point x="1018" y="853" type="line"/>
    </contour>
    <contour>
      <point x="193" y="450" type="line"/>
      <point x="193" y="620" type="line"/>
      <point x="1018" y="620" type="line"/>
      <point x="1018" y="450" type="line"/>
    </contour>
  </outline>
</glyph>
<glyph name="greater" format="1">
  <advance width="1123"/>
  <unicode hex="003E"/>
  <outline>
    <contour>
      <point x="92" y="1092" type="line"/>
      <point x="1041" y="658" type="line"/>
      <point x="1041" y="531" type="line"/>
      <point x="88" y="78" type="line"/>
      <point x="88" y="279" type="line"/>
      <point x="723" y="591" type="line"/>
      <point x="92" y="890" type="line"/>
    </contour>
  </outline>
</glyph>
<glyph name="A" format="1">
  <advance width="1407"/>
  <unicode hex="0041"/>
  <outline>
    <contour>
      <point x="50" y="0" type="line"/>
      <point x="324" y="0" type="line"/>
      <point x="437" y="335" type="line"/>
      <point x="963" y="335" type="line"/>
      <point x="1072" y="0" type="line"/>
      <point x="1357" y="0" type="line"/>
      <point x="828" y="1456" type="line"/>
      <point x="588" y="1456" type="line"/>
    </contour>
    <contour>
      <point x="504" y="533" type="line"/>
      <point x="577" y="758" type="line"/>
      <point x="702" y="1129" type="line"/>
      <point x="827" y="758" type="line"/>
      <point x="898" y="533" type="line"/>
    </contour>
  </outline>
</glyph>
<glyph name="E" format="1">
  <advance width="1196"/>
  <unicode hex="0045"/>
  <outline>
    <contour>
      <point x="186" y="0" type="line"/>
      <point x="186" y="1456" type="line"/>
      <point x="1044" y="1456" type="line"/>
      <point x="1044" y="1256" type="line"/>
      <point x="436" y="1256" type="line"/>
      <point x="436" y="843" type="line"/>
      <point x="1002" y="843" type="line"/>
      <point x="1002" y="650" type="line"/>
      <point x="436" y="650" type="line"/>
      <point x="436" y="200" type="line"/>
      <point x="1064" y="200" type="line"/>
      <point x="1064" y="0" type="line"/>
    </contour>
  </outline>
</glyph>
<glyph name="F" format="1">
  <advance width="1157"/>
  <unicode hex="0046"/>
  <outline>
    <contour>
      <point x="192" y="0" type="line"/>
      <point x="192" y="1456" type="line"/>
      <point x="1033" y="1456" type="line"/>
      <point x="1033" y="1256" type="line"/>
      <point x="442" y="1256" type="line"/>
      <point x="442" y="865" type="line"/>
      <point x="1000" y="865" type="line"/>
      <point x="1000" y="672" type="line"/>
      <point x="442" y="672" type="line"/>
      <point x="442" y="0" type="line"/>
    </contour>
  </outline>
</glyph>
<glyph name="G" format="1">
  <advance width="1561.81818182"/>
  <unicode hex="0047"/>
  <outline>
    <contour>
      <point x="862" y="-24" type="curve"/>
      <point x="1043" y="-24"/>
      <point x="1259" y="18"/>
      <point x="1400" y="85" type="curve"/>
      <point x="1400" y="828" type="line"/>
      <point x="786" y="828" type="line"/>
      <point x="786" y="638" type="line"/>
      <point x="1163" y="638" type="line"/>
      <point x="1163" y="217" type="line"/>
      <point x="771" y="110"/>
      <point x="375.0" y="213.981956334"/>
      <point x="375" y="784" type="curve"/>
      <point x="375" y="1403"/>
      <point x="942" y="1498"/>
      <point x="1259" y="1234" type="curve"/>
      <point x="1351" y="1436" type="line"/>
      <point x="871" y="1770"/>
      <point x="116" y="1535"/>
      <point x="116" y="785" type="curve" smooth="yes"/>
      <point x="116" y="309"/>
      <point x="393" y="-29"/>
    </contour>
  </outline>
</glyph>
<glyph name="J" format="1">
  <advance width="1254.25"/>
  <unicode hex="004A"/>
  <outline>
    <contour>
      <point x="111.25" y="145" type="curve"/>
      <point x="229.25" y="310" type="line"/>
      <point x="310.25" y="217"/>
      <point x="406.25" y="181"/>
      <point x="489.25" y="184" type="curve" smooth="yes"/>
      <point x="603.25" y="188"/>
      <point x="692.25" y="268"/>
      <point x="692.25" y="428" type="curve" smooth="yes"/>
      <point x="692.25" y="1360" type="line"/>
      <point x="328.25" y="1360" type="line"/>
      <point x="328.25" y="1560" type="line"/>
      <point x="1198.25" y="1560" type="line"/>
      <point x="1198.25" y="1360" type="line"/>
      <point x="935.25" y="1360" type="line"/>
      <point x="935.25" y="447" type="line" smooth="yes"/>
      <point x="935.25" y="125"/>
      <point x="729.25" y="-24"/>
      <point x="506.25" y="-24" type="curve" smooth="yes"/>
      <point x="351.25" y="-24"/>
      <point x="220.25" y="21"/>
    </contour>
  </outline>
</glyph>
<glyph name="K" format="1">
  <advance width="1285"/>
  <unicode hex="004B"/>
  <outline>
    <contour>
      <point x="192" y="0" type="line"/>
      <point x="192" y="1456" type="line"/>
      <point x="442" y="1456" type="line"/>
      <point x="442" y="822" type="line"/>
      <point x="951" y="1456" type="line"/>
      <point x="1255" y="1456" type="line"/>
      <point x="679" y="773" type="line"/>
      <point x="1289" y="0" type="line"/>
      <point x="970" y="0" type="line"/>
      <point x="442" y="681" type="line"/>
      <point x="442" y="0" type="line"/>
    </contour>
  </outline>
</glyph>
<glyph name="N" format="1">
  <advance width="1617"/>
  <unicode hex="004E"/>
  <outline>
    <contour>
      <point x="192" y="0" type="line"/>
      <point x="192" y="1456" type="line"/>
      <point x="453" y="1456" type="line"/>
      <point x="1088" y="520" type="line"/>
      <point x="1205" y="340" type="line"/>
      <point x="1205" y="1456" type="line"/>
      <point x="1425" y="1456" type="line"/>
      <point x="1425" y="0" type="line"/>
      <point x="1160" y="0" type="line"/>
      <point x="521" y="951" type="line"/>
      <point x="412" y="1113" type="line"/>
      <point x="412" y="0" type="line"/>
    </contour>
  </outline>
</glyph>
<glyph name="O" format="1">
  <advance width="1674"/>
  <unicode hex="004F"/>
  <outline>
    <contour>
      <point x="834" y="186" type="curve" smooth="yes"/>
      <point x="1062" y="186"/>
      <point x="1300" y="373"/>
      <point x="1299" y="778" type="curve"/>
      <point x="1299" y="1188"/>
      <point x="1062" y="1377"/>
      <point x="834" y="1377" type="curve" smooth="yes"/>
      <point x="606" y="1377"/>
      <point x="375" y="1188"/>
      <point x="375" y="778" type="curve" smooth="yes"/>
      <point x="375" y="373"/>
      <point x="606" y="186"/>
    </contour>
    <contour>
      <point x="834" y="-24" type="curve" smooth="yes"/>
      <point x="407" y="-24"/>
      <point x="116" y="307"/>
      <point x="116" y="780" type="curve" smooth="yes"/>
      <point x="116" y="1248"/>
      <point x="405" y="1584"/>
      <point x="834" y="1584" type="curve" smooth="yes"/>
      <point x="1267" y="1584"/>
      <point x="1558" y="1248"/>
      <point x="1558" y="780" type="curve" smooth="yes"/>
      <point x="1558" y="307"/>
      <point x="1265" y="-24"/>
    </contour>
  </outline>
</glyph>
<glyph name="P" format="1">
  <advance width="1282"/>
  <unicode hex="0050"/>
  <outline>
    <contour>
      <point x="192" y="0" type="line"/>
      <point x="192" y="1456" type="line"/>
      <point x="612" y="1456" type="line" smooth="yes"/>
      <point x="1025" y="1456"/>
      <point x="1213" y="1330"/>
      <point x="1213" y="1017" type="curve" smooth="yes"/>
      <point x="1213" y="689"/>
      <point x="1031" y="559"/>
      <point x="635" y="559" type="curve" smooth="yes"/>
      <point x="442" y="559" type="line"/>
      <point x="442" y="0" type="line"/>
    </contour>
    <contour>
      <point x="442" y="762" type="line"/>
      <point x="652" y="762" type="line" smooth="yes"/>
      <point x="860" y="762"/>
      <point x="957" y="829"/>
      <point x="957" y="1015" type="curve" smooth="yes"/>
      <point x="957" y="1192"/>
      <point x="853" y="1256"/>
      <point x="634" y="1256" type="curve" smooth="yes"/>
      <point x="442" y="1256" type="line"/>
    </contour>
  </outline>
</glyph>
<glyph name="R" format="1">
  <advance width="1325"/>
  <unicode hex="0052"/>
  <outline>
    <contour>
      <point x="186" y="0" type="line"/>
      <point x="186" y="1456" type="line"/>
      <point x="644" y="1456" type="line" smooth="yes"/>
      <point x="1018" y="1456"/>
      <point x="1194" y="1343"/>
      <point x="1194" y="1077" type="curve" smooth="yes"/>
      <point x="1194" y="886"/>
      <point x="1123" y="726"/>
      <point x="902" y="666" type="curve"/>
      <point x="956" y="724" type="line"/>
      <point x="1269" y="0" type="line"/>
      <point x="1002" y="0" type="line"/>
      <point x="724" y="712" type="line"/>
      <point x="803" y="646" type="line"/>
      <point x="436" y="646" type="line"/>
      <point x="436" y="0" type="line"/>
    </contour>
    <contour>
      <point x="436" y="829" type="line"/>
      <point x="652" y="829" type="line" smooth="yes"/>
      <point x="855" y="829"/>
      <point x="942" y="895"/>
      <point x="942" y="1062" type="curve" smooth="yes"/>
      <point x="942" y="1222"/>
      <point x="857" y="1256"/>
      <point x="661" y="1256" type="curve" smooth="yes"/>
      <point x="436" y="1256" type="line"/>
    </contour>
  </outline>
</glyph>
<glyph name="S" format="1">
  <advance width="1259.2288176"/>
  <unicode hex="0053"/>
  <outline>
    <contour>
      <point x="674" y="-22" type="curve" smooth="yes"/>
      <point x="507" y="-22"/>
      <point x="304" y="35"/>
      <point x="165" y="123" type="curve"/>
      <point x="224" y="321" type="line"/>
      <point x="400" y="223"/>
      <point x="545" y="186"/>
      <point x="665" y="186" type="curve" smooth="yes"/>
      <point x="826" y="186"/>
      <point x="903" y="281"/>
      <point x="903" y="387" type="curve" smooth="yes"/>
      <point x="903" y="488"/>
      <point x="879" y="561"/>
      <point x="555" y="666" type="curve" smooth="yes"/>
      <point x="234" y="778"/>
      <point x="157" y="901"/>
      <point x="157" y="1074" type="curve" smooth="yes"/>
      <point x="157" y="1291"/>
      <point x="294" y="1482"/>
      <point x="648" y="1482" type="curve" smooth="yes"/>
      <point x="794" y="1482"/>
      <point x="955" y="1441"/>
      <point x="1087" y="1360" type="curve"/>
      <point x="1017" y="1166" type="line"/>
      <point x="891" y="1233"/>
      <point x="772" y="1274"/>
      <point x="664" y="1274" type="curve" smooth="yes"/>
      <point x="472" y="1274"/>
      <point x="415" y="1204"/>
      <point x="415" y="1107" type="curve" smooth="yes"/>
      <point x="415" y="1007"/>
      <point x="441" y="957"/>
      <point x="688" y="868" type="curve" smooth="yes"/>
      <point x="1034" y="749"/>
      <point x="1145" y="644"/>
      <point x="1139" y="393" type="curve" smooth="yes"/>
      <point x="1134" y="166"/>
      <point x="989" y="-22"/>
    </contour>
  </outline>
</glyph>
<glyph name="T" format="1">
  <advance width="1116.76712329"/>
  <unicode hex="0054"/>
  <outline>
    <contour>
      <point x="434.383561644" y="0" type="line"/>
      <point x="434.383561644" y="1360" type="line"/>
      <point x="24.3835616438" y="1360" type="line"/>
      <point x="24.3835616438" y="1560" type="line"/>
      <point x="1092.38356164" y="1560" type="line"/>
      <point x="1092.38356164" y="1360" type="line"/>
      <point x="682.383561644" y="1360" type="line"/>
      <point x="682.383561644" y="0" type="line"/>
    </contour>
  </outline>
</glyph>
<glyph name="V" format="1">
  <advance width="1402.71428572"/>
  <unicode hex="0056"/>
  <outline>
    <contour>
      <point x="578.857142857" y="0" type="line"/>
      <point x="50.8571428571" y="1560" type="line"/>
      <point x="322.857142857" y="1560" type="line"/>
      <point x="603.857142857" y="630" type="line"/>
      <point x="718.857142857" y="323" type="line"/>
      <point x="825.857142857" y="629" type="line"/>
      <point x="1071.85714286" y="1560" type="line"/>
      <point x="1351.85714286" y="1560" type="line"/>
      <point x="856.857142857" y="0" type="line"/>
    </contour>
  </outline>
</glyph>
<glyph name="W" format="1">
  <advance width="2175.75862069"/>
  <unicode hex="0057"/>
  <outline>
    <contour>
      <point x="513.379310345" y="0" type="line"/>
      <point x="61.3793103448" y="1560" type="line"/>
      <point x="316.379310345" y="1560" type="line"/>
      <point x="565.379310345" y="614" type="line"/>
      <point x="632.379310345" y="385" type="line"/>
      <point x="718.379310345" y="614" type="line"/>
      <point x="1013.37931034" y="1560" type="line"/>
      <point x="1175.37931034" y="1560" type="line"/>
      <point x="1469.37931034" y="610" type="line"/>
      <point x="1550.37931034" y="386" type="line"/>
      <point x="1622.37931034" y="614" type="line"/>
      <point x="1865.37931034" y="1560" type="line"/>
      <point x="2114.37931034" y="1560" type="line"/>
      <point x="1663.37931034" y="0" type="line"/>
      <point x="1442.37931034" y="0" type="line"/>
      <point x="1089.37931034" y="1155" type="line"/>
      <point x="734.379310345" y="0" type="line"/>
    </contour>
  </outline>
</glyph>
<glyph name="X" format="1">
  <advance width="1349"/>
  <unicode hex="0058"/>
  <outline>
    <contour>
      <point x="1049" y="0" type="line"/>
      <point x="674" y="564" type="line"/>
      <point x="286" y="0" type="line"/>
      <point x="12" y="0" type="line"/>
      <point x="551" y="751" type="line"/>
      <point x="61" y="1456" type="line"/>
      <point x="339" y="1456" type="line"/>
      <point x="698" y="908" type="line"/>
      <point x="1064" y="1456" type="line"/>
      <point x="1337" y="1456" type="line"/>
      <point x="821" y="720" type="line"/>
      <point x="1320" y="0" type="line"/>
    </contour>
  </outline>
</glyph>
<glyph name="Z" format="1">
  <advance width="1234"/>
  <unicode hex="005A"/>
  <outline>
    <contour>
      <point x="110" y="0" type="line"/>
      <point x="110" y="198" type="line"/>
      <point x="850" y="1256" type="line"/>
      <point x="141" y="1256" type="line"/>
      <point x="141" y="1456" type="line"/>
      <point x="1142" y="1456" type="line"/>
      <point x="1142" y="1276" type="line"/>
      <point x="405" y="200" type="line"/>
      <point x="1134" y="200" type="line"/>
      <point x="1134" y="0" type="line"/>
    </contour>
  </outline>
</glyph>
<glyph name="backslash" format="1">
  <advance width="967"/>
  <unicode hex="005C"/>
  <outline>
    <contour>
      <point x="656" y="0" type="line"/>
      <point x="77" y="1456" type="line"/>
      <point x="314" y="1456" type="line"/>
      <point x="891" y="0" type="line"/>
    </contour>
  </outline>
</glyph>
<glyph name="bracketright" format="1">
  <advance width="951"/>
  <unicode hex="005D"/>
  <outline>
    <contour>
      <point x="210" y="-222" type="line"/>
      <point x="210" y="-93" type="line"/>
      <point x="403" y="-93" type="line"/>
      <point x="403" y="1350" type="line"/>
      <point x="211" y="1350" type="line"/>
      <point x="211" y="1480" type="line"/>
      <point x="661" y="1480" type="line"/>
      <point x="661" y="-222" type="line"/>
    </contour>
  </outline>
</glyph>
<glyph name="grave" format="1">
  <advance width="681"/>
  <unicode hex="0060"/>
  <outline>
    <contour>
      <point x="411" y="1162" type="line"/>
      <point x="81" y="1480" type="line"/>
      <point x="354" y="1480" type="line"/>
      <point x="600" y="1162" type="line"/>
    </contour>
  </outline>
</glyph>
<glyph name="a" format="1">
  <advance width="1219"/>
  <unicode hex="0061"/>
  <outline>
    <contour>
      <point x="528" y="-22" type="curve" smooth="yes"/>
      <point x="650" y="-22"/>
      <point x="762" y="46"/>
      <point x="814" y="151" type="curve"/>
      <point x="868" y="-7"/>
      <point x="994" y="-16"/>
      <point x="1141" y="-16" type="curve"/>
      <point x="1173" y="176" type="line"/>
      <point x="1020" y="176"/>
      <point x="1014" y="253"/>
      <point x="1014" y="363" type="curve" smooth="yes"/>
      <point x="1014" y="976" type="line"/>
      <point x="970" y="994"/>
      <point x="834" y="1053"/>
      <point x="678" y="1048" type="curve" smooth="yes"/>
      <point x="347" y="1038"/>
      <point x="114" y="793"/>
      <point x="114" y="431" type="curve" smooth="yes"/>
      <point x="114" y="170"/>
      <point x="291" y="-22"/>
    </contour>
    <contour>
      <point x="545" y="164" type="curve" smooth="yes"/>
      <point x="438" y="164"/>
      <point x="358" y="268"/>
      <point x="358" y="420" type="curve" smooth="yes"/>
      <point x="358" y="675"/>
      <point x="479" y="848"/>
      <point x="641" y="861" type="curve" smooth="yes"/>
      <point x="716" y="867"/>
      <point x="772" y="849"/>
      <point x="772" y="849" type="curve"/>
      <point x="772" y="429" type="line" smooth="yes"/>
      <point x="772" y="286"/>
      <point x="687" y="164"/>
    </contour>
  </outline>
</glyph>
<glyph name="b" format="1">
  <advance width="1231"/>
  <unicode hex="0062"/>
  <outline>
    <contour>
      <point x="579" y="-22" type="curve" smooth="yes"/>
      <point x="448" y="-22"/>
      <point x="315" y="3"/>
      <point x="176" y="55" type="curve"/>
      <point x="176" y="1480" type="line"/>
      <point x="418" y="1480" type="line"/>
      <point x="418" y="905" type="line"/>
      <point x="493" y="1005"/>
      <point x="591" y="1048"/>
      <point x="715" y="1048" type="curve" smooth="yes"/>
      <point x="917" y="1048"/>
      <point x="1119" y="881"/>
      <point x="1119" y="565" type="curve" smooth="yes"/>
      <point x="1119" y="175"/>
      <point x="834" y="-22"/>
    </contour>
    <contour>
      <point x="570" y="164" type="curve" smooth="yes"/>
      <point x="690" y="164"/>
      <point x="871" y="281"/>
      <point x="871" y="561" type="curve" smooth="yes"/>
      <point x="871" y="728"/>
      <point x="790" y="862"/>
      <point x="673" y="862" type="curve" smooth="yes"/>
      <point x="540" y="862"/>
      <point x="418" y="740"/>
      <point x="418" y="511" type="curve" smooth="yes"/>
      <point x="418" y="187" type="line"/>
      <point x="466" y="171"/>
      <point x="516" y="164"/>
    </contour>
  </outline>
</glyph>
<glyph name="c" format="1">
  <advance width="1035"/>
  <unicode hex="0063"/>
  <outline>
    <contour>
      <point x="623" y="-22" type="curve" smooth="yes"/>
      <point x="347" y="-22"/>
      <point x="116" y="148"/>
      <point x="116" y="519" type="curve" smooth="yes"/>
      <point x="116" y="883"/>
      <point x="356" y="1048"/>
      <point x="629" y="1048" type="curve" smooth="yes"/>
      <point x="730" y="1048"/>
      <point x="844" y="1023"/>
      <point x="941" y="960" type="curve"/>
      <point x="876" y="798" type="line"/>
      <point x="797" y="841"/>
      <point x="712" y="862"/>
      <point x="647" y="862" type="curve" smooth="yes"/>
      <point x="477" y="862"/>
      <point x="364" y="743"/>
      <point x="364" y="520" type="curve" smooth="yes"/>
      <point x="364" y="248"/>
      <point x="508" y="164"/>
      <point x="650" y="164" type="curve" smooth="yes"/>
      <point x="725" y="164"/>
      <point x="816" y="183"/>
      <point x="898" y="236" type="curve"/>
      <point x="971" y="81" type="line"/>
      <point x="857" y="5"/>
      <point x="736" y="-22"/>
    </contour>
  </outline>
</glyph>
<glyph name="d" format="1">
  <advance width="1275"/>
  <unicode hex="0064"/>
  <outline>
    <contour>
      <point x="354" y="456" type="curve" smooth="yes"/>
      <point x="354" y="274"/>
      <point x="455" y="164"/>
      <point x="562" y="164" type="curve" smooth="yes"/>
      <point x="684" y="164"/>
      <point x="805" y="269"/>
      <point x="805" y="498" type="curve" smooth="yes"/>
      <point x="805" y="839" type="line"/>
      <point x="761" y="852"/>
      <point x="712" y="862"/>
      <point x="663" y="862" type="curve" smooth="yes"/>
      <point x="510" y="862"/>
      <point x="354" y="736"/>
    </contour>
    <contour>
      <point x="847" y="150" type="curve"/>
      <point x="779" y="41"/>
      <point x="652" y="-22"/>
      <point x="525" y="-22" type="curve" smooth="yes"/>
      <point x="330" y="-22"/>
      <point x="106" y="125"/>
      <point x="106" y="450" type="curve" smooth="yes"/>
      <point x="106" y="841"/>
      <point x="378" y="1048"/>
      <point x="633" y="1048" type="curve" smooth="yes"/>
      <point x="690" y="1048"/>
      <point x="747" y="1039"/>
      <point x="805" y="1022" type="curve"/>
      <point x="805" y="1560" type="line"/>
      <point x="1047" y="1560" type="line"/>
      <point x="1047" y="365" type="line" smooth="yes"/>
      <point x="1047" y="217"/>
      <point x="1082" y="176"/>
      <point x="1206" y="176" type="curve"/>
      <point x="1174" y="-16" type="line"/>
      <point x="963" y="-16"/>
      <point x="897" y="24"/>
    </contour>
  </outline>
</glyph>
<glyph name="e" format="1">
  <advance width="1095"/>
  <unicode hex="0065"/>
  <outline>
    <contour>
      <point x="613" y="867" type="curve" smooth="yes"/>
      <point x="460" y="867"/>
      <point x="348" y="690"/>
      <point x="348" y="523" type="curve"/>
      <point x="650" y="567"/>
      <point x="759" y="644"/>
      <point x="747" y="758" type="curve" smooth="yes"/>
      <point x="740" y="823"/>
      <point x="691" y="867"/>
    </contour>
    <contour>
      <point x="953" y="260" type="curve"/>
      <point x="1031" y="113" type="line"/>
      <point x="920" y="16"/>
      <point x="751" y="-22"/>
      <point x="625" y="-22" type="curve" smooth="yes"/>
      <point x="332" y="-22"/>
      <point x="112" y="173"/>
      <point x="112" y="514" type="curve" smooth="yes"/>
      <point x="112" y="816"/>
      <point x="333" y="1048"/>
      <point x="616" y="1048" type="curve" smooth="yes"/>
      <point x="841" y="1048"/>
      <point x="964" y="897"/>
      <point x="964" y="750" type="curve" smooth="yes"/>
      <point x="964" y="566"/>
      <point x="816" y="417"/>
      <point x="370" y="371" type="curve"/>
      <point x="405" y="249"/>
      <point x="505" y="166"/>
      <point x="651" y="166" type="curve" smooth="yes"/>
      <point x="737" y="166"/>
      <point x="839" y="194"/>
    </contour>
  </outline>
</glyph>
<glyph name="g" format="1">
  <advance width="1206"/>
  <unicode hex="0067"/>
  <outline>
    <contour>
      <point x="557" y="-522" type="curve" smooth="yes"/>
      <point x="446" y="-522"/>
      <point x="299" y="-492"/>
      <point x="181" y="-429" type="curve"/>
      <point x="222" y="-227" type="line"/>
      <point x="316" y="-287"/>
      <point x="428" y="-327"/>
      <point x="534" y="-327" type="curve" smooth="yes"/>
      <point x="674" y="-327"/>
      <point x="812" y="-251"/>
      <point x="812" y="-10" type="curve" smooth="yes"/>
      <point x="812" y="129" type="line"/>
      <point x="744" y="36"/>
      <point x="634" y="0"/>
      <point x="538" y="0" type="curve" smooth="yes"/>
      <point x="294" y="0"/>
      <point x="112" y="199"/>
      <point x="112" y="460" type="curve" smooth="yes"/>
      <point x="112" y="806"/>
      <point x="331" y="1048"/>
      <point x="664" y="1048" type="curve" smooth="yes"/>
      <point x="791" y="1048"/>
      <point x="958" y="998"/>
      <point x="1054" y="942" type="curve"/>
      <point x="1054" y="36" type="line" smooth="yes"/>
      <point x="1054" y="-320"/>
      <point x="830" y="-522"/>
    </contour>
    <contour>
      <point x="567" y="191" type="curve" smooth="yes"/>
      <point x="715" y="191"/>
      <point x="812" y="352"/>
      <point x="812" y="545" type="curve" smooth="yes"/>
      <point x="812" y="837" type="line"/>
      <point x="776" y="851"/>
      <point x="718" y="862"/>
      <point x="665" y="862" type="curve" smooth="yes"/>
      <point x="496" y="862"/>
      <point x="360" y="725"/>
      <point x="360" y="470" type="curve" smooth="yes"/>
      <point x="360" y="318"/>
      <point x="456" y="191"/>
    </contour>
  </outline>
</glyph>
<glyph name="i" format="1">
  <advance width="695"/>
  <unicode hex="0069"/>
  <outline>
    <contour>
      <point x="613.0" y="0.0" type="line"/>
      <point x="265.0" y="-23.0"/>
      <point x="151.0" y="82.0"/>
      <point x="151.0" y="435.0" type="curve" smooth="yes"/>
      <point x="151.0" y="1026.0" type="line"/>
      <point x="393.0" y="1026.0" type="line"/>
      <point x="393.0" y="439.0" type="line" smooth="yes"/>
      <point x="393.0" y="251.0"/>
      <point x="402.0" y="191.0"/>
      <point x="633.0" y="196.0" type="curve"/>
    </contour>
    <contour>
      <point x="277" y="1188" type="curve" smooth="yes"/>
      <point x="179" y="1188"/>
      <point x="116" y="1242"/>
      <point x="116" y="1334" type="curve" smooth="yes"/>
      <point x="116" y="1426"/>
      <point x="179" y="1480"/>
      <point x="279" y="1480" type="curve" smooth="yes"/>
      <point x="376" y="1480"/>
      <point x="440" y="1424"/>
      <point x="440" y="1333" type="curve" smooth="yes"/>
      <point x="440" y="1242"/>
      <point x="376" y="1188"/>
    </contour>
  </outline>
</glyph>
<glyph name="j" format="1">
  <advance width="659.986857364"/>
  <unicode hex="006A"/>
  <outline>
    <contour>
      <point x="381" y="1188" type="curve" smooth="yes"/>
      <point x="283" y="1188"/>
      <point x="220" y="1242"/>
      <point x="220" y="1334" type="curve" smooth="yes"/>
      <point x="220" y="1426"/>
      <point x="283" y="1480"/>
      <point x="383" y="1480" type="curve" smooth="yes"/>
      <point x="480" y="1480"/>
      <point x="544" y="1424"/>
      <point x="544" y="1333" type="curve" smooth="yes"/>
      <point x="544" y="1242"/>
      <point x="480" y="1188"/>
    </contour>
    <contour>
      <point x="121" y="-499" type="curve" smooth="yes"/>
      <point x="18" y="-499"/>
      <point x="-55" y="-475"/>
      <point x="-55" y="-475" type="curve"/>
      <point x="-34" y="-305" type="line"/>
      <point x="-34" y="-305"/>
      <point x="31" y="-323"/>
      <point x="99" y="-323" type="curve" smooth="yes"/>
      <point x="197" y="-323"/>
      <point x="249" y="-280"/>
      <point x="249" y="-90" type="curve" smooth="yes"/>
      <point x="249" y="1026" type="line"/>
      <point x="491" y="1026" type="line"/>
      <point x="491" y="-93" type="line" smooth="yes"/>
      <point x="491" y="-325"/>
      <point x="427" y="-499"/>
    </contour>
  </outline>
</glyph>
<glyph name="k" format="1">
  <advance width="1198"/>
  <unicode hex="006B"/>
  <outline>
    <contour>
      <point x="1159" y="0" type="line"/>
      <point x="885" y="0" type="line"/>
      <point x="383" y="536" type="line"/>
      <point x="863" y="1026" type="line"/>
      <point x="1147" y="1026" type="line"/>
      <point x="670" y="536" type="line"/>
    </contour>
    <contour>
      <point x="434" y="0" type="line"/>
      <point x="192" y="0" type="line"/>
      <point x="192" y="1480" type="line"/>
      <point x="434" y="1480" type="line"/>
    </contour>
  </outline>
</glyph>
<glyph name="l" format="1">
  <advance width="764"/>
  <unicode hex="006C"/>
  <outline>
    <contour>
      <point x="754" y="33" type="line"/>
      <point x="474" y="-70"/>
      <point x="192" y="-26"/>
      <point x="192" y="337" type="curve" smooth="yes"/>
      <point x="192" y="1480" type="line"/>
      <point x="434" y="1480" type="line"/>
      <point x="434" y="334" type="line" smooth="yes"/>
      <point x="434" y="158"/>
      <point x="521" y="155"/>
      <point x="723" y="203" type="curve"/>
    </contour>
  </outline>
</glyph>
<glyph name="m" format="1">
  <advance width="1914"/>
  <unicode hex="006D"/>
  <outline>
    <contour>
      <point x="1861" y="-16" type="line"/>
      <point x="1500" y="-44"/>
      <point x="1471" y="117"/>
      <point x="1471" y="339" type="curve" smooth="yes"/>
      <point x="1471" y="617" type="line" smooth="yes"/>
      <point x="1471" y="770"/>
      <point x="1429" y="856"/>
      <point x="1299" y="856" type="curve" smooth="yes"/>
      <point x="1188" y="856"/>
      <point x="1082" y="758"/>
      <point x="1082" y="574" type="curve" smooth="yes"/>
      <point x="1082" y="0" type="line"/>
      <point x="840" y="0" type="line"/>
      <point x="840" y="617" type="line" smooth="yes"/>
      <point x="840" y="782"/>
      <point x="796" y="856"/>
      <point x="688" y="856" type="curve" smooth="yes"/>
      <point x="557" y="856"/>
      <point x="443" y="765"/>
      <point x="443" y="548" type="curve" smooth="yes"/>
      <point x="443" y="0" type="line"/>
      <point x="201" y="0" type="line"/>
      <point x="201" y="587" type="line" smooth="yes"/>
      <point x="201" y="698"/>
      <point x="172" y="773"/>
      <point x="52" y="825" type="curve"/>
      <point x="144" y="1026" type="line"/>
      <point x="256" y="1007"/>
      <point x="346" y="945"/>
      <point x="383" y="835" type="curve"/>
      <point x="466" y="987"/>
      <point x="601" y="1048"/>
      <point x="743" y="1048" type="curve" smooth="yes"/>
      <point x="899" y="1048"/>
      <point x="966" y="964"/>
      <point x="1014" y="862" type="curve"/>
      <point x="1108" y="1018"/>
      <point x="1247" y="1048"/>
      <point x="1351" y="1048" type="curve" smooth="yes"/>
      <point x="1587" y="1048"/>
      <point x="1713" y="890"/>
      <point x="1713" y="623" type="curve" smooth="yes"/>
      <point x="1713" y="357" type="line" smooth="yes"/>
      <point x="1713" y="237"/>
      <point x="1717" y="159"/>
      <point x="1885" y="176" type="curve"/>
    </contour>
  </outline>
</glyph>
<glyph name="n" format="1">
  <advance width="1311"/>
  <unicode hex="006E"/>
  <outline>
    <contour>
      <point x="1282" y="176" type="curve"/>
      <point x="1258" y="-16" type="line"/>
      <point x="905" y="-42"/>
      <point x="868" y="101"/>
      <point x="868" y="348" type="curve" smooth="yes"/>
      <point x="868" y="604" type="line" smooth="yes"/>
      <point x="868" y="757"/>
      <point x="822" y="857"/>
      <point x="688" y="857" type="curve" smooth="yes"/>
      <point x="542" y="857"/>
      <point x="443" y="717"/>
      <point x="443" y="522" type="curve" smooth="yes"/>
      <point x="443" y="0" type="line"/>
      <point x="201" y="0" type="line"/>
      <point x="201" y="604" type="line" smooth="yes"/>
      <point x="201" y="725"/>
      <point x="141" y="788"/>
      <point x="52" y="825" type="curve"/>
      <point x="144" y="1026" type="line"/>
      <point x="287" y="1003"/>
      <point x="361" y="912"/>
      <point x="384" y="835" type="curve"/>
      <point x="458" y="994"/>
      <point x="605" y="1048"/>
      <point x="762" y="1048" type="curve" smooth="yes"/>
      <point x="991" y="1048"/>
      <point x="1110" y="914"/>
      <point x="1110" y="647" type="curve" smooth="yes"/>
      <point x="1110" y="345" type="line" smooth="yes"/>
      <point x="1110" y="236"/>
      <point x="1117" y="159"/>
    </contour>
  </outline>
</glyph>
<glyph name="o" format="1">
  <advance width="1206"/>
  <unicode hex="006F"/>
  <outline>
    <contour>
      <point x="603" y="164" type="curve" smooth="yes"/>
      <point x="773" y="164"/>
      <point x="852" y="299"/>
      <point x="852" y="512" type="curve" smooth="yes"/>
      <point x="852" y="725"/>
      <point x="772" y="862"/>
      <point x="601" y="862" type="curve" smooth="yes"/>
      <point x="430" y="862"/>
      <point x="354" y="725"/>
      <point x="354" y="512" type="curve" smooth="yes"/>
      <point x="354" y="299"/>
      <point x="431" y="164"/>
    </contour>
    <contour>
      <point x="601" y="-22" type="curve" smooth="yes"/>
      <point x="290" y="-22"/>
      <point x="106" y="195"/>
      <point x="106" y="512" type="curve" smooth="yes"/>
      <point x="106" y="830"/>
      <point x="289" y="1048"/>
      <point x="600" y="1048" type="curve" smooth="yes"/>
      <point x="915" y="1048"/>
      <point x="1100" y="832"/>
      <point x="1100" y="513" type="curve" smooth="yes"/>
      <point x="1100" y="196"/>
      <point x="917" y="-22"/>
    </contour>
  </outline>
</glyph>
<glyph name="p" format="1">
  <advance width="1240"/>
  <unicode hex="0070"/>
  <outline>
    <contour>
      <point x="183" y="-548" type="line"/>
      <point x="425" y="-548" type="line"/>
      <point x="425" y="4" type="line"/>
      <point x="492" y="-14"/>
      <point x="531" y="-22"/>
      <point x="599" y="-22" type="curve" smooth="yes"/>
      <point x="920" y="-22"/>
      <point x="1128" y="221"/>
      <point x="1128" y="574" type="curve" smooth="yes"/>
      <point x="1128" y="923"/>
      <point x="908" y="1048"/>
      <point x="734" y="1048" type="curve" smooth="yes"/>
      <point x="553" y="1048"/>
      <point x="443" y="964"/>
      <point x="384" y="849" type="curve"/>
      <point x="363" y="922"/>
      <point x="309" y="1005"/>
      <point x="280" y="1026" type="curve"/>
      <point x="54" y="937" type="line"/>
      <point x="90" y="906"/>
      <point x="183" y="814"/>
      <point x="183" y="651" type="curve" smooth="yes"/>
    </contour>
    <contour>
      <point x="425" y="188" type="curve"/>
      <point x="425" y="490" type="line" smooth="yes"/>
      <point x="425" y="729"/>
      <point x="542" y="862"/>
      <point x="673" y="862" type="curve" smooth="yes"/>
      <point x="803" y="862"/>
      <point x="880" y="731"/>
      <point x="880" y="572" type="curve" smooth="yes"/>
      <point x="880" y="322"/>
      <point x="770" y="164"/>
      <point x="563" y="164" type="curve" smooth="yes"/>
      <point x="509" y="164"/>
      <point x="472" y="173"/>
    </contour>
  </outline>
</glyph>
<glyph name="q" format="1">
  <advance width="1251"/>
  <unicode hex="0071"/>
  <outline>
    <contour>
      <point x="1095" y="-552" type="line"/>
      <point x="919" y="-619"/>
      <point x="824" y="-529"/>
      <point x="824" y="-391" type="curve" smooth="yes"/>
      <point x="824" y="107" type="line"/>
      <point x="756" y="14"/>
      <point x="634" y="-22"/>
      <point x="538" y="-22" type="curve" smooth="yes"/>
      <point x="294" y="-22"/>
      <point x="112" y="183"/>
      <point x="112" y="444" type="curve" smooth="yes"/>
      <point x="112" y="790"/>
      <point x="331" y="1048"/>
      <point x="664" y="1048" type="curve" smooth="yes"/>
      <point x="791" y="1048"/>
      <point x="970" y="998"/>
      <point x="1066" y="942" type="curve"/>
      <point x="1066" y="-357" type="line"/>
      <point x="1328" y="-226" type="line"/>
      <point x="1377" y="-405" type="line"/>
    </contour>
    <contour>
      <point x="567" y="164" type="curve" smooth="yes"/>
      <point x="715" y="164"/>
      <point x="824" y="336"/>
      <point x="824" y="529" type="curve" smooth="yes"/>
      <point x="824" y="838" type="line"/>
      <point x="788" y="852"/>
      <point x="718" y="862"/>
      <point x="665" y="862" type="curve" smooth="yes"/>
      <point x="496" y="862"/>
      <point x="360" y="709"/>
      <point x="360" y="454" type="curve" smooth="yes"/>
      <point x="360" y="302"/>
      <point x="456" y="164"/>
    </contour>
  </outline>
</glyph>
<glyph name="r" format="1">
  <advance width="848.0"/>
  <unicode hex="0072"/>
  <outline>
    <contour>
      <point x="167.0" y="0.0" type="line"/>
      <point x="167.0" y="524.0" type="line" smooth="yes"/>
      <point x="167.0" y="834.0"/>
      <point x="132.0" y="1026.0"/>
      <point x="132.0" y="1026.0" type="curve"/>
      <point x="380.0" y="1026.0" type="line"/>
      <point x="380.0" y="1026.0"/>
      <point x="409.0" y="880.0"/>
      <point x="409.0" y="553.0" type="curve" smooth="yes"/>
      <point x="409.0" y="0.0" type="line"/>
    </contour>
    <contour>
      <point x="350.0" y="819" type="line"/>
      <point x="408.0" y="968"/>
      <point x="547.0" y="1044"/>
      <point x="655.0" y="1044" type="curve" smooth="yes"/>
      <point x="735.0" y="1044"/>
      <point x="776.0" y="1027"/>
      <point x="788.0" y="1022" type="curve"/>
      <point x="770.0" y="815" type="line"/>
      <point x="726.0" y="826"/>
      <point x="689.0" y="831"/>
      <point x="654.0" y="831" type="curve" smooth="yes"/>
      <point x="483.0" y="831"/>
      <point x="409.0" y="648"/>
      <point x="409.0" y="566" type="curve"/>
    </contour>
  </outline>
</glyph>
<glyph name="s" format="1">
  <advance width="953.676399145"/>
  <unicode hex="0073"/>
  <outline>
    <contour>
      <point x="487.670250984" y="-22" type="curve" smooth="yes"/>
      <point x="335.670250984" y="-22"/>
      <point x="194.670250984" y="36"/>
      <point x="133.670250984" y="69" type="curve"/>
      <point x="185.670250984" y="246" type="line"/>
      <point x="444.670250984" y="133"/>
      <point x="606.670250984" y="139"/>
      <point x="617.670250984" y="275" type="curve" smooth="yes"/>
      <point x="632.670250984" y="469"/>
      <point x="105.670250984" y="407"/>
      <point x="127.670250984" y="754" type="curve" smooth="yes"/>
      <point x="135.670250984" y="882"/>
      <point x="217.670250984" y="1048"/>
      <point x="474.670250984" y="1048" type="curve" smooth="yes"/>
      <point x="655.670250984" y="1048"/>
      <point x="773.670250984" y="988"/>
      <point x="800.670250984" y="973" type="curve"/>
      <point x="744.670250984" y="810" type="line"/>
      <point x="535.670250984" y="897"/>
      <point x="354.670250984" y="888"/>
      <point x="354.670250984" y="765" type="curve" smooth="yes"/>
      <point x="354.670250984" y="593"/>
      <point x="840.670250984" y="654"/>
      <point x="841.670250984" y="299" type="curve" smooth="yes"/>
      <point x="842.670250984" y="102"/>
      <point x="721.670250984" y="-22"/>
    </contour>
  </outline>
</glyph>
<glyph name="t" format="1">
  <advance width="897.0"/>
  <unicode hex="0074"/>
  <outline>
    <contour>
      <point x="790.0" y="0.0" type="line"/>
      <point x="351.0" y="-23.0"/>
      <point x="220" y="72"/>
      <point x="220.0" y="425.0" type="curve" smooth="yes"/>
      <point x="220" y="1419" type="line"/>
      <point x="462.0" y="1419.0" type="line"/>
      <point x="462.0" y="439.0" type="line" smooth="yes"/>
      <point x="462.0" y="251.0"/>
      <point x="499.0" y="191.0"/>
      <point x="810.0" y="196.0" type="curve"/>
    </contour>
    <contour>
      <point x="17.0" y="862" type="line"/>
      <point x="17.0" y="1026" type="line"/>
      <point x="765.0" y="1026" type="line"/>
      <point x="765.0" y="862" type="line"/>
    </contour>
  </outline>
</glyph>
<glyph name="u" format="1">
  <advance width="1257"/>
  <unicode hex="0075"/>
  <outline>
    <contour>
      <point x="528" y="-22" type="curve" smooth="yes"/>
      <point x="686" y="-22"/>
      <point x="801" y="50"/>
      <point x="849" y="151" type="curve"/>
      <point x="903" y="-1"/>
      <point x="1014" y="-16"/>
      <point x="1176" y="-16" type="curve"/>
      <point x="1208" y="176" type="line"/>
      <point x="1059" y="176"/>
      <point x="1049" y="244"/>
      <point x="1049" y="360" type="curve" smooth="yes"/>
      <point x="1049" y="1026" type="line"/>
      <point x="807" y="1026" type="line"/>
      <point x="807" y="409" type="line" smooth="yes"/>
      <point x="807" y="227"/>
      <point x="715" y="156"/>
      <point x="578" y="165" type="curve" smooth="yes"/>
      <point x="470" y="172"/>
      <point x="411" y="251"/>
      <point x="411" y="377" type="curve" smooth="yes"/>
      <point x="411" y="553" type="line" smooth="yes"/>
      <point x="411" y="880"/>
      <point x="370" y="1026"/>
      <point x="370" y="1026" type="curve"/>
      <point x="122" y="996" type="line"/>
      <point x="122" y="996"/>
      <point x="169" y="834"/>
      <point x="169" y="524" type="curve" smooth="yes"/>
      <point x="169" y="354" type="line" smooth="yes"/>
      <point x="169" y="129"/>
      <point x="304" y="-22"/>
    </contour>
  </outline>
</glyph>
<glyph name="x" format="1">
  <advance width="1118"/>
  <unicode hex="0078"/>
  <outline>
    <contour>
      <point x="32" y="0" type="line"/>
      <point x="426" y="535" type="line"/>
      <point x="77" y="1026" type="line"/>
      <point x="362" y="1026" type="line"/>
      <point x="581" y="697" type="line"/>
      <point x="790" y="1026" type="line"/>
      <point x="1069" y="1026" type="line"/>
      <point x="705" y="520" type="line"/>
      <point x="1086" y="0" type="line"/>
      <point x="783" y="0" type="line"/>
      <point x="545" y="361" type="line"/>
      <point x="298" y="0" type="line"/>
    </contour>
  </outline>
</glyph>
<glyph name="y" format="1">
  <advance width="1174.0"/>
  <unicode hex="0079"/>
  <outline>
    <contour>
      <point x="548.0" y="-522" type="curve" smooth="yes"/>
      <point x="434.0" y="-522"/>
      <point x="292.0" y="-490"/>
      <point x="175.0" y="-429" type="curve"/>
      <point x="216.0" y="-227" type="line"/>
      <point x="301.0" y="-282"/>
      <point x="423.0" y="-327"/>
      <point x="526.0" y="-327" type="curve" smooth="yes"/>
      <point x="649.0" y="-327"/>
      <point x="806.0" y="-270"/>
      <point x="806.0" y="-10" type="curve" smooth="yes"/>
      <point x="806.0" y="208" type="line"/>
      <point x="867.0" y="205" type="line"/>
      <point x="825.0" y="107"/>
      <point x="733.0" y="-1"/>
      <point x="522.0" y="-1" type="curve" smooth="yes"/>
      <point x="293.0" y="-1"/>
      <point x="133.0" y="151"/>
      <point x="133.0" y="376" type="curve" smooth="yes"/>
      <point x="133.0" y="594" type="line" smooth="yes"/>
      <point x="133.0" y="874"/>
      <point x="110.0" y="1026"/>
      <point x="110.0" y="1026" type="curve"/>
      <point x="355.0" y="1026" type="line"/>
      <point x="355.0" y="1026"/>
      <point x="375.0" y="914"/>
      <point x="375.0" y="607" type="curve" smooth="yes"/>
      <point x="375.0" y="402" type="line" smooth="yes"/>
      <point x="375.0" y="268"/>
      <point x="452.0" y="191"/>
      <point x="566.0" y="191" type="curve" smooth="yes"/>
      <point x="724.0" y="191"/>
      <point x="806.0" y="300"/>
      <point x="806.0" y="503" type="curve" smooth="yes"/>
      <point x="806.0" y="1026" type="line"/>
      <point x="1048.0" y="1026" type="line"/>
      <point x="1048.0" y="53" type="line" smooth="yes"/>
      <point x="1048.0" y="-342"/>
      <point x="814.0" y="-522"/>
    </contour>
  </outline>
</glyph>
<glyph name="z" format="1">
  <advance width="957"/>
  <unicode hex="007A"/>
  <outline>
    <contour>
      <point x="111" y="0" type="line"/>
      <point x="111" y="155" type="line"/>
      <point x="589" y="856" type="line"/>
      <point x="117" y="856" type="line"/>
      <point x="117" y="1026" type="line"/>
      <point x="877" y="1026" type="line"/>
      <point x="877" y="873" type="line"/>
      <point x="407" y="170" type="line"/>
      <point x="899" y="170" type="line"/>
      <point x="899" y="0" type="line"/>
    </contour>
  </outline>
</glyph>
<glyph name="braceleft" format="1">
  <advance width="933"/>
  <unicode hex="007B"/>
  <outline>
    <contour>
      <point x="786" y="-196" type="curve"/>
      <point x="786" y="-28" type="line"/>
      <point x="616" y="-28"/>
      <point x="595" y="42"/>
      <point x="595" y="203" type="curve" smooth="yes"/>
      <point x="595" y="360" type="line" smooth="yes"/>
      <point x="595" y="513"/>
      <point x="519" y="626"/>
      <point x="411" y="677" type="curve"/>
      <point x="508" y="729"/>
      <point x="595" y="843"/>
      <point x="595" y="998" type="curve" smooth="yes"/>
      <point x="595" y="1207" type="line" smooth="yes"/>
      <point x="595" y="1343"/>
      <point x="651" y="1384"/>
      <point x="786" y="1384" type="curve"/>
      <point x="786" y="1552" type="line"/>
      <point x="533" y="1552"/>
      <point x="345" y="1440"/>
      <point x="345" y="1190" type="curve" smooth="yes"/>
      <point x="345" y="1024" type="line" smooth="yes"/>
      <point x="345" y="869"/>
      <point x="301" y="781"/>
      <point x="160" y="768" type="curve"/>
      <point x="160" y="586" type="line"/>
      <point x="320" y="569"/>
      <point x="345" y="473"/>
      <point x="345" y="299" type="curve" smooth="yes"/>
      <point x="345" y="122" type="line" smooth="yes"/>
      <point x="345" y="-107"/>
      <point x="568" y="-196"/>
    </contour>
  </outline>
</glyph>
<glyph name="bar" format="1">
  <advance width="844"/>
  <unicode hex="007C"/>
  <outline>
    <contour>
      <point x="306" y="-126" type="line"/>
      <point x="306" y="1570" type="line"/>
      <point x="538" y="1570" type="line"/>
      <point x="538" y="-126" type="line"/>
    </contour>
  </outline>
</glyph>
<glyph name="asciitilde" format="1">
  <advance width="1535"/>
  <unicode hex="007E"/>
  <outline>
    <contour>
      <point x="345" y="667" type="line"/>
      <point x="372" y="793"/>
      <point x="474" y="920"/>
      <point x="639" y="838" type="curve" smooth="yes"/>
      <point x="869" y="724" type="line" smooth="yes"/>
      <point x="1147" y="586"/>
      <point x="1309" y="769"/>
      <point x="1366" y="1067" type="curve"/>
      <point x="1219" y="1113" type="line"/>
      <point x="1169" y="978"/>
      <point x="1110" y="850"/>
      <point x="948" y="928" type="curve" smooth="yes"/>
      <point x="709" y="1043" type="line" smooth="yes"/>
      <point x="491" y="1148"/>
      <point x="249" y="1035"/>
      <point x="198" y="721" type="curve"/>
    </contour>
  </outline>
</glyph>
<glyph name="cent" format="1">
  <advance width="1027"/>
  <unicode hex="00A2"/>
  <outline>
    <component base="c" xOffset="-19"/>
    <contour>
      <point x="566" y="-414" type="line"/>
      <point x="566" y="1366" type="line"/>
      <point x="699" y="1366" type="line"/>
      <point x="699" y="-414" type="line"/>
    </contour>
  </outline>
</glyph>
<glyph name="sterling" format="1">
  <advance width="1254"/>
  <unicode hex="00A3"/>
  <outline>
    <contour>
      <point x="189" y="0" type="line"/>
      <point x="1137" y="0" type="line"/>
      <point x="1137" y="177" type="line"/>
      <point x="484" y="177" type="line"/>
      <point x="587" y="234"/>
      <point x="624" y="391"/>
      <point x="624" y="595" type="curve" smooth="yes"/>
      <point x="624" y="675" type="line"/>
      <point x="960" y="675" type="line"/>
      <point x="960" y="820" type="line"/>
      <point x="622" y="820" type="line"/>
      <point x="622" y="969" type="line" smooth="yes"/>
      <point x="622" y="1194"/>
      <point x="722" y="1272"/>
      <point x="843" y="1272" type="curve" smooth="yes"/>
      <point x="916" y="1272"/>
      <point x="998" y="1243"/>
      <point x="1068" y="1200" type="curve"/>
      <point x="1138" y="1378" type="line"/>
      <point x="1059" y="1440"/>
      <point x="948" y="1480"/>
      <point x="814" y="1480" type="curve" smooth="yes"/>
      <point x="479" y="1480"/>
      <point x="374" y="1237"/>
      <point x="374" y="880" type="curve" smooth="yes"/>
      <point x="374" y="820" type="line"/>
      <point x="187" y="820" type="line"/>
      <point x="187" y="675" type="line"/>
      <point x="374" y="675" type="line"/>
      <point x="374" y="540" type="line" smooth="yes"/>
      <point x="374" y="367"/>
      <point x="293" y="204"/>
      <point x="187" y="142" type="curve"/>
    </contour>
  </outline>
</glyph>
<glyph name="currency" format="1">
  <advance width="1313"/>
  <unicode hex="00A4"/>
  <outline>
    <contour>
      <point x="1123" y="361" type="line"/>
      <point x="930" y="550" type="line"/>
      <point x="857" y="479"/>
      <point x="760" y="456"/>
      <point x="654" y="456" type="curve" smooth="yes"/>
      <point x="556" y="456"/>
      <point x="464" y="475"/>
      <point x="392" y="540" type="curve"/>
      <point x="209" y="343" type="line"/>
      <point x="167" y="387" type="line"/>
      <point x="352" y="581" type="line"/>
      <point x="277" y="662"/>
      <point x="229" y="772"/>
      <point x="229" y="891" type="curve" smooth="yes"/>
      <point x="229" y="1000"/>
      <point x="272" y="1101"/>
      <point x="339" y="1180" type="curve"/>
      <point x="149" y="1365" type="line"/>
      <point x="194" y="1410" type="line"/>
      <point x="380" y="1226" type="line"/>
      <point x="457" y="1302"/>
      <point x="558" y="1328"/>
      <point x="665" y="1325" type="curve" smooth="yes"/>
      <point x="763" y="1322"/>
      <point x="852" y="1301"/>
      <point x="922" y="1236" type="curve"/>
      <point x="1101" y="1429" type="line"/>
      <point x="1149" y="1384" type="line"/>
      <point x="963" y="1191" type="line"/>
      <point x="1037" y="1108"/>
      <point x="1082" y="998"/>
      <point x="1079" y="879" type="curve" smooth="yes"/>
      <point x="1076" y="769"/>
      <point x="1037" y="670"/>
      <point x="970" y="593" type="curve"/>
      <point x="1166" y="403" type="line"/>
    </contour>
    <contour>
      <point x="652" y="546" type="curve" smooth="yes"/>
      <point x="832" y="546"/>
      <point x="966" y="680"/>
      <point x="971" y="879" type="curve" smooth="yes"/>
      <point x="975" y="1077"/>
      <point x="840" y="1223"/>
      <point x="661" y="1227" type="curve" smooth="yes"/>
      <point x="481" y="1232"/>
      <point x="334" y="1086"/>
      <point x="334" y="888" type="curve" smooth="yes"/>
      <point x="334" y="688"/>
      <point x="473" y="546"/>
    </contour>
  </outline>
</glyph>
<glyph name="yen" format="1">
  <advance width="1256"/>
  <unicode hex="00A5"/>
  <outline>
    <contour>
      <point x="1124" y="283" type="line"/>
      <point x="119" y="283" type="line"/>
      <point x="119" y="422" type="line"/>
      <point x="528" y="422" type="line"/>
      <point x="528" y="608" type="line"/>
      <point x="112" y="608" type="line"/>
      <point x="112" y="750" type="line"/>
      <point x="1120" y="750" type="line"/>
      <point x="1120" y="608" type="line"/>
      <point x="717" y="608" type="line"/>
      <point x="717" y="422" type="line"/>
      <point x="1124" y="422" type="line"/>
    </contour>
    <component base="Y" xOffset="10"/>
  </outline>
</glyph>
<glyph name="section" format="1">
  <advance width="1215"/>
  <unicode hex="00A7"/>
  <outline>
    <contour>
      <point x="1015" y="143" type="curve" smooth="yes"/>
      <point x="1015" y="-192"/>
      <point x="563" y="-249"/>
      <point x="206" y="-113" type="curve"/>
      <point x="204" y="106" type="line"/>
      <point x="508" y="-2"/>
      <point x="736" y="51"/>
      <point x="768" y="133" type="curve" smooth="yes"/>
      <point x="804" y="225"/>
      <point x="678" y="256"/>
      <point x="559" y="302" type="curve"/>
      <point x="320" y="398"/>
      <point x="172" y="443"/>
      <point x="172" y="657" type="curve" smooth="yes"/>
      <point x="172" y="797"/>
      <point x="290" y="865"/>
      <point x="400" y="912" type="curve"/>
      <point x="293" y="967"/>
      <point x="217" y="1045"/>
      <point x="217" y="1183" type="curve" smooth="yes"/>
      <point x="217" y="1397"/>
      <point x="441" y="1480"/>
      <point x="670" y="1480" type="curve" smooth="yes"/>
      <point x="775" y="1480"/>
      <point x="848" y="1461"/>
      <point x="943" y="1436" type="curve"/>
      <point x="943" y="1236" type="line"/>
      <point x="769" y="1307"/>
      <point x="480" y="1303"/>
      <point x="470" y="1187" type="curve" smooth="yes"/>
      <point x="463" y="1100"/>
      <point x="541" y="1063"/>
      <point x="609" y="1037" type="curve" smooth="yes"/>
      <point x="862" y="941"/>
      <point x="1043" y="872"/>
      <point x="1043" y="665" type="curve" smooth="yes"/>
      <point x="1043" y="525"/>
      <point x="923" y="453"/>
      <point x="818" y="399" type="curve"/>
      <point x="925" y="353"/>
      <point x="1015" y="278"/>
    </contour>
    <contour>
      <point x="651" y="501" type="curve"/>
      <point x="713" y="539"/>
      <point x="787" y="586"/>
      <point x="787" y="660" type="curve" smooth="yes"/>
      <point x="787" y="771"/>
      <point x="638" y="791"/>
      <point x="560" y="831" type="curve"/>
      <point x="502" y="802"/>
      <point x="431" y="758"/>
      <point x="431" y="676" type="curve" smooth="yes"/>
      <point x="431" y="562"/>
      <point x="545" y="541"/>
    </contour>
  </outline>
</glyph>
<glyph name="guillemotleft" format="1">
  <advance width="1219"/>
  <unicode hex="00AB"/>
  <outline>
    <contour>
      <point x="499" y="301" type="line"/>
      <point x="190" y="735" type="line"/>
      <point x="505" y="1174" type="line"/>
      <point x="675" y="1174" type="line"/>
      <point x="390" y="735" type="line"/>
      <point x="665" y="301" type="line"/>
    </contour>
    <contour>
      <point x="896" y="301" type="line"/>
      <point x="607" y="735" type="line"/>
      <point x="902" y="1174" type="line"/>
      <point x="1089" y="1174" type="line"/>
      <point x="786" y="735" type="line"/>
      <point x="1081" y="301" type="line"/>
    </contour>
  </outline>
</glyph>
<glyph name="logicalnot" format="1">
  <advance width="1535"/>
  <unicode hex="00AC"/>
  <outline>
    <contour>
      <point x="1168" y="419" type="line"/>
      <point x="1168" y="913" type="line"/>
      <point x="189" y="913" type="line"/>
      <point x="189" y="1077" type="line"/>
      <point x="1344" y="1077" type="line"/>
      <point x="1344" y="419" type="line"/>
    </contour>
  </outline>
</glyph>
<glyph name="macron" format="1">
  <advance width="1038"/>
  <unicode hex="00AF"/>
  <outline>
    <contour>
      <point x="192" y="1313" type="line"/>
      <point x="192" y="1470" type="line"/>
      <point x="846" y="1470" type="line"/>
      <point x="846" y="1313" type="line"/>
    </contour>
  </outline>
</glyph>
<glyph name="cedilla" format="1">
  <advance width="941"/>
  <unicode hex="00B8"/>
  <outline>
    <contour>
      <point x="307" y="-697" type="curve" smooth="yes"/>
      <point x="450" y="-697"/>
      <point x="590" y="-654"/>
      <point x="590" y="-513" type="curve" smooth="yes"/>
      <point x="590" y="-387"/>
      <point x="477" y="-344"/>
      <point x="355" y="-338" type="curve"/>
      <point x="345" y="-338" type="line"/>
      <point x="365" y="-212" type="line"/>
      <point x="252" y="-212" type="line"/>
      <point x="213" y="-435" type="line"/>
      <point x="251" y="-433" type="line"/>
      <point x="264" y="-431"/>
      <point x="284" y="-430"/>
      <point x="294" y="-430" type="curve" smooth="yes"/>
      <point x="365" y="-430"/>
      <point x="422" y="-446"/>
      <point x="422" y="-516" type="curve" smooth="yes"/>
      <point x="422" y="-581"/>
      <point x="365" y="-600"/>
      <point x="288" y="-600" type="curve" smooth="yes"/>
      <point x="225" y="-600"/>
      <point x="169" y="-586"/>
      <point x="111" y="-572" type="curve"/>
      <point x="101" y="-672" type="line"/>
      <point x="165" y="-685"/>
      <point x="236" y="-697"/>
    </contour>
  </outline>
</glyph>
<glyph name="guillemotright" format="1">
  <advance width="1249"/>
  <unicode hex="00BB"/>
  <outline>
    <contour>
      <point x="748" y="1174" type="line"/>
      <point x="1059" y="737" type="line"/>
      <point x="743" y="301" type="line"/>
      <point x="575" y="301" type="line"/>
      <point x="857" y="737" type="line"/>
      <point x="583" y="1174" type="line"/>
    </contour>
    <contour>
      <point x="323" y="1174" type="line"/>
      <point x="615" y="737" type="line"/>
      <point x="318" y="301" type="line"/>
      <point x="130" y="301" type="line"/>
      <point x="435" y="737" type="line"/>
      <point x="137" y="1174" type="line"/>
    </contour>
  </outline>
</glyph>
<glyph name="onequarter" format="1">
  <advance width="1855"/>
  <unicode hex="00BC"/>
  <outline>
    <contour>
      <point x="359" y="0" type="line"/>
      <point x="1332" y="1520" type="line"/>
      <point x="1490" y="1520" type="line"/>
      <point x="521" y="0" type="line"/>
    </contour>
    <contour>
      <point x="265" y="1520" type="curve"/>
      <point x="402" y="1520" type="line"/>
      <point x="402" y="694" type="line"/>
      <point x="531" y="694" type="line"/>
      <point x="531" y="572" type="line"/>
      <point x="99" y="572" type="line"/>
      <point x="99" y="698" type="line"/>
      <point x="248" y="698" type="line"/>
      <point x="247" y="1376" type="line"/>
      <point x="86" y="1298" type="line"/>
      <point x="86" y="1424" type="line"/>
      <point x="151" y="1450"/>
      <point x="207" y="1487"/>
    </contour>
    <contour>
      <point x="1497" y="0" type="line"/>
      <point x="1497" y="221" type="line"/>
      <point x="1097" y="221" type="line"/>
      <point x="1097" y="328" type="line"/>
      <point x="1485" y="936" type="line"/>
      <point x="1637" y="936" type="line"/>
      <point x="1637" y="347" type="line"/>
      <point x="1775" y="347" type="line"/>
      <point x="1776" y="221" type="line"/>
      <point x="1634" y="221" type="line"/>
      <point x="1634" y="0" type="line"/>
    </contour>
    <contour>
      <point x="1232" y="347" type="line"/>
      <point x="1497" y="347" type="line"/>
      <point x="1497" y="769" type="line"/>
    </contour>
  </outline>
</glyph>
<glyph name="AE" format="1">
  <advance width="2059"/>
  <unicode hex="00C6"/>
  <outline>
    <contour>
      <point x="18" y="0" type="line"/>
      <point x="306" y="0" type="line"/>
      <point x="519" y="378" type="line"/>
      <point x="1088" y="378" type="line"/>
      <point x="1119" y="0" type="line"/>
      <point x="1927" y="0" type="line"/>
      <point x="1927" y="184" type="line"/>
      <point x="1358" y="184" type="line"/>
      <point x="1318" y="648" type="line"/>
      <point x="1863" y="648" type="line"/>
      <point x="1863" y="821" type="line"/>
      <point x="1296" y="821" type="line"/>
      <point x="1258" y="1262" type="line"/>
      <point x="1904" y="1262" type="line"/>
      <point x="1904" y="1456" type="line"/>
      <point x="851" y="1456" type="line"/>
    </contour>
    <contour>
      <point x="599" y="562" type="line"/>
      <point x="995" y="1262" type="line"/>
      <point x="1009" y="1262" type="line"/>
      <point x="1069" y="562" type="line"/>
    </contour>
  </outline>
</glyph>
<glyph name="multiply" format="1">
  <advance width="1254"/>
  <unicode hex="00D7"/>
  <outline>
    <contour>
      <point x="300" y="271" type="line"/>
      <point x="179" y="392" type="line"/>
      <point x="517" y="741" type="line"/>
      <point x="179" y="1090" type="line"/>
      <point x="300" y="1211" type="line"/>
      <point x="627" y="862" type="line"/>
      <point x="953" y="1211" type="line"/>
      <point x="1075" y="1089" type="line"/>
      <point x="736" y="741" type="line"/>
      <point x="1075" y="393" type="line"/>
      <point x="953" y="271" type="line"/>
      <point x="627" y="619" type="line"/>
    </contour>
  </outline>
</glyph>
<glyph name="germandbls" format="1">
  <advance width="1234"/>
  <unicode hex="00DF"/>
  <outline>
    <contour>
      <point x="1181" y="321" type="curve" smooth="yes"/>
      <point x="1181" y="-36"/>
      <point x="737" y="-130"/>
      <point x="538" y="109" type="curve"/>
      <point x="575" y="263" type="line"/>
      <point x="711" y="115"/>
      <point x="939" y="127"/>
      <point x="960" y="287" type="curve" smooth="yes"/>
      <point x="981" y="452"/>
      <point x="842" y="563"/>
      <point x="607" y="711" type="curve" smooth="yes"/>
      <point x="554" y="744"/>
      <point x="537" y="850"/>
      <point x="622" y="897" type="curve" smooth="yes"/>
      <point x="736" y="960"/>
      <point x="823" y="981"/>
      <point x="802" y="1163" type="curve" smooth="yes"/>
      <point x="791" y="1259"/>
      <point x="719" y="1312"/>
      <point x="636" y="1312" type="curve" smooth="yes"/>
      <point x="506" y="1312"/>
      <point x="434" y="1220"/>
      <point x="434" y="1032" type="curve" smooth="yes"/>
      <point x="434" y="0" type="line"/>
      <point x="192" y="0" type="line"/>
      <point x="192" y="1044" type="line" smooth="yes"/>
      <point x="192" y="1324"/>
      <point x="389" y="1480"/>
      <point x="637" y="1480" type="curve" smooth="yes"/>
      <point x="894" y="1480"/>
      <point x="1034" y="1343"/>
      <point x="1044" y="1164" type="curve" smooth="yes"/>
      <point x="1055" y="968"/>
      <point x="958" y="885"/>
      <point x="810" y="820" type="curve" smooth="yes"/>
      <point x="796" y="814"/>
      <point x="787" y="794"/>
      <point x="812" y="779" type="curve" smooth="yes"/>
      <point x="1016" y="656"/>
      <point x="1181" y="574"/>
    </contour>
  </outline>
</glyph>
<glyph name="oslash" format="1">
  <advance width="2136"/>
  <unicode hex="00F8"/>
  <outline>
    <contour>
      <point x="397" y="-191" type="line"/>
      <point x="292" y="-153" type="line"/>
      <point x="840" y="1233" type="line"/>
      <point x="961" y="1196" type="line"/>
    </contour>
    <component base="o" xOffset="10"/>
  </outline>
</glyph>
<glyph name="hbar" format="1">
  <advance width="1238"/>
  <unicode hex="0127"/>
  <outline>
    <component base="h"/>
    <contour>
      <point x="34" y="1154" type="line"/>
      <point x="34" y="1311" type="line"/>
      <point x="769" y="1311" type="line"/>
      <point x="769" y="1154" type="line"/>
    </contour>
  </outline>
</glyph>
<glyph name="dotlessj" format="1">
  <advance width="895"/>
  <unicode hex="0237"/>
  <outline>
    <contour>
      <point x="-25" y="-756" type="curve" smooth="yes"/>
      <point x="-77" y="-756"/>
      <point x="-124" y="-750"/>
      <point x="-169" y="-740" type="curve"/>
      <point x="-170" y="-573" type="line"/>
      <point x="-135" y="-578"/>
      <point x="-106" y="-585"/>
      <point x="-71" y="-585" type="curve" smooth="yes"/>
      <point x="112" y="-585"/>
      <point x="155" y="-423"/>
      <point x="155" y="-216" type="curve" smooth="yes"/>
      <point x="155" y="953" type="line"/>
      <point x="349" y="953" type="line"/>
      <point x="349" y="-166" type="line" smooth="yes"/>
      <point x="349" y="-428"/>
      <point x="297" y="-650"/>
      <point x="115" y="-730" type="curve" smooth="yes"/>
      <point x="75" y="-747"/>
      <point x="29" y="-756"/>
    </contour>
  </outline>
</glyph>
<glyph name="ogonek" format="1">
  <advance width="904"/>
  <unicode hex="02DB"/>
  <outline>
    <contour>
      <point x="452" y="-458" type="curve" smooth="yes"/>
      <point x="341" y="-458"/>
      <point x="215" y="-400"/>
      <point x="215" y="-283" type="curve" smooth="yes"/>
      <point x="215" y="-178"/>
      <point x="288" y="-48"/>
      <point x="468" y="14" type="curve"/>
      <point x="619" y="0" type="line"/>
      <point x="407" y="-70"/>
      <point x="381" y="-215"/>
      <point x="381" y="-234" type="curve" smooth="yes"/>
      <point x="381" y="-294"/>
      <point x="418" y="-329"/>
      <point x="478" y="-329" type="curve" smooth="yes"/>
      <point x="554" y="-329"/>
      <point x="566" y="-315"/>
      <point x="619" y="-294" type="curve"/>
      <point x="619" y="-424" type="line"/>
      <point x="566" y="-446"/>
      <point x="527" y="-458"/>
    </contour>
  </outline>
</glyph>
<glyph name="tilde" format="1">
  <advance width="1151"/>
  <unicode hex="02DC"/>
  <outline>
    <contour>
      <point x="233" y="1182" type="line"/>
      <point x="244" y="1318"/>
      <point x="321" y="1429"/>
      <point x="466" y="1429" type="curve" smooth="yes"/>
      <point x="548" y="1429"/>
      <point x="608" y="1386"/>
      <point x="669" y="1362" type="curve" smooth="yes"/>
      <point x="690" y="1353"/>
      <point x="713" y="1349"/>
      <point x="734" y="1349" type="curve" smooth="yes"/>
      <point x="796" y="1349"/>
      <point x="828" y="1395"/>
      <point x="836" y="1455" type="curve"/>
      <point x="963" y="1455" type="line"/>
      <point x="948" y="1322"/>
      <point x="879" y="1202"/>
      <point x="734" y="1202" type="curve" smooth="yes"/>
      <point x="630" y="1202"/>
      <point x="566" y="1282"/>
      <point x="463" y="1282" type="curve" smooth="yes"/>
      <point x="399" y="1282"/>
      <point x="365" y="1248"/>
      <point x="356" y="1182" type="curve"/>
    </contour>
  </outline>
</glyph>
<glyph name="circumflexcomb" format="1">
  <advance width="1212"/>
  <unicode hex="0302"/>
  <outline>
    <contour>
      <point x="514" y="1509" type="line"/>
      <point x="680" y="1509" type="line"/>
      <point x="968" y="1128" type="line"/>
      <point x="742" y="1128" type="line"/>
      <point x="597" y="1312" type="line"/>
      <point x="445" y="1128" type="line"/>
      <point x="227" y="1128" type="line"/>
    </contour>
  </outline>
</glyph>
<glyph name="dotaccentcmb" format="1">
  <advance width="932"/>
  <unicode hex="0307"/>
  <outline>
    <contour>
      <point x="401" y="1412" type="curve" smooth="yes"/>
      <point x="485" y="1412"/>
      <point x="526" y="1352"/>
      <point x="526" y="1293" type="curve" smooth="yes"/>
      <point x="526" y="1234"/>
      <point x="485" y="1174"/>
      <point x="401" y="1174" type="curve" smooth="yes"/>
      <point x="317" y="1174"/>
      <point x="276" y="1234"/>
      <point x="276" y="1293" type="curve" smooth="yes"/>
      <point x="276" y="1352"/>
      <point x="317" y="1412"/>
    </contour>
  </outline>
</glyph>
<glyph name="uni0311" format="1">
  <advance width="1106"/>
  <unicode hex="0311"/>
  <outline>
    <contour>
      <point x="235" y="1231" type="line"/>
      <point x="250" y="1419"/>
      <point x="368" y="1509"/>
      <point x="563" y="1509" type="curve" smooth="yes"/>
      <point x="753" y="1509"/>
      <point x="872" y="1412"/>
      <point x="887" y="1231" type="curve"/>
      <point x="785" y="1231" type="line"/>
      <point x="762" y="1330"/>
      <point x="670" y="1383"/>
      <point x="555" y="1383" type="curve" smooth="yes"/>
      <point x="440" y="1383"/>
      <point x="354" y="1335"/>
      <point x="337" y="1231" type="curve"/>
    </contour>
  </outline>
</glyph>
<glyph name="uni03A9" format="1">
  <advance width="2716"/>
  <unicode hex="03A9"/>
  <outline>
    <contour>
      <point x="186" y="0" type="line"/>
      <point x="173" y="163" type="line"/>
      <point x="559" y="161" type="line"/>
      <point x="411" y="282"/>
      <point x="283" y="452"/>
      <point x="227" y="679" type="curve" smooth="yes"/>
      <point x="208" y="752"/>
      <point x="198" y="830"/>
      <point x="198" y="911" type="curve" smooth="yes"/>
      <point x="198" y="1167"/>
      <point x="295" y="1359"/>
      <point x="429" y="1487" type="curve"/>
      <point x="550" y="1613"/>
      <point x="729" y="1702"/>
      <point x="955" y="1702" type="curve" smooth="yes"/>
      <point x="1185" y="1702"/>
      <point x="1360" y="1606"/>
      <point x="1476" y="1472" type="curve"/>
      <point x="1601" y="1342"/>
      <point x="1688" y="1150"/>
      <point x="1688" y="906" type="curve" smooth="yes"/>
      <point x="1688" y="729"/>
      <point x="1636" y="585"/>
      <point x="1571" y="467" type="curve"/>
      <point x="1503" y="347"/>
      <point x="1414" y="242"/>
      <point x="1322" y="161" type="curve"/>
      <point x="1691" y="163" type="line"/>
      <point x="1680" y="0" type="line"/>
      <point x="1109" y="0" type="line"/>
      <point x="1104" y="142" type="line"/>
      <point x="1263" y="260"/>
      <point x="1392" y="431"/>
      <point x="1450" y="658" type="curve"/>
      <point x="1470" y="730"/>
      <point x="1480" y="807"/>
      <point x="1480" y="885" type="curve" smooth="yes"/>
      <point x="1480" y="1179"/>
      <point x="1363" y="1387"/>
      <point x="1182" y="1484" type="curve" smooth="yes"/>
      <point x="1116" y="1519"/>
      <point x="1038" y="1537"/>
      <point x="950" y="1537" type="curve" smooth="yes"/>
      <point x="686" y="1537"/>
      <point x="521" y="1371"/>
      <point x="448" y="1153" type="curve" smooth="yes"/>
      <point x="422" y="1073"/>
      <point x="408" y="986"/>
      <point x="408" y="891" type="curve" smooth="yes"/>
      <point x="408" y="624"/>
      <point x="508" y="424"/>
      <point x="628" y="282" type="curve" smooth="yes"/>
      <point x="674" y="229"/>
      <point x="723" y="182"/>
      <point x="778" y="142" type="curve"/>
      <point x="782" y="0" type="line"/>
    </contour>
  </outline>
</glyph>
<glyph name="pi" format="1">
  <advance width="2201"/>
  <unicode hex="03C0"/>
  <outline>
    <contour>
      <point x="1201" y="-14" type="curve" smooth="yes"/>
      <point x="998" y="-14"/>
      <point x="955" y="117"/>
      <point x="955" y="322" type="curve" smooth="yes"/>
      <point x="955" y="1060" type="line"/>
      <point x="561" y="1060" type="line"/>
      <point x="538" y="722"/>
      <point x="519" y="389"/>
      <point x="449" y="99" type="curve" smooth="yes"/>
      <point x="438" y="55"/>
      <point x="426" y="20"/>
      <point x="412" y="-4" type="curve"/>
      <point x="222" y="-4" type="line"/>
      <point x="293" y="119"/>
      <point x="320" y="304"/>
      <point x="341" y="478" type="curve" smooth="yes"/>
      <point x="364" y="661"/>
      <point x="374" y="862"/>
      <point x="379" y="1060" type="curve"/>
      <point x="247" y="1057"/>
      <point x="150" y="1037"/>
      <point x="60" y="989" type="curve"/>
      <point x="40" y="1143" type="line"/>
      <point x="133" y="1214"/>
      <point x="287" y="1217"/>
      <point x="444" y="1217" type="curve" smooth="yes"/>
      <point x="1369" y="1217" type="line"/>
      <point x="1369" y="1060" type="line"/>
      <point x="1129" y="1060" type="line"/>
      <point x="1140" y="334" type="line"/>
      <point x="1140" y="238"/>
      <point x="1158" y="168"/>
      <point x="1256" y="168" type="curve" smooth="yes"/>
      <point x="1285" y="168"/>
      <point x="1316" y="173"/>
      <point x="1350" y="183" type="curve"/>
      <point x="1348" y="148" type="line" smooth="yes"/>
      <point x="1347" y="137"/>
      <point x="1347" y="125"/>
      <point x="1347" y="113" type="curve" smooth="yes"/>
      <point x="1347" y="72"/>
      <point x="1350" y="37"/>
      <point x="1362" y="3" type="curve"/>
      <point x="1309" y="-6"/>
      <point x="1256" y="-14"/>
    </contour>
  </outline>
</glyph>
<glyph name="quoteleft" format="1">
  <advance width="984"/>
  <unicode hex="2018"/>
  <outline>
    <contour>
      <point x="575" y="1456" type="line"/>
      <point x="453" y="939" type="line"/>
      <point x="239" y="939" type="line"/>
      <point x="420" y="1456" type="line"/>
    </contour>
  </outline>
</glyph>
<glyph name="quotedblleft" format="1">
  <advance width="1787"/>
  <unicode hex="201C"/>
  <outline>
    <contour>
      <point x="326" y="1802" type="line"/>
      <point x="506" y="2319" type="line"/>
      <point x="653" y="2319" type="line"/>
      <point x="539" y="1802" type="line"/>
    </contour>
    <contour>
      <point x="719" y="1802" type="line"/>
      <point x="891" y="2319" type="line"/>
      <point x="1047" y="2319" type="line"/>
      <point x="925" y="1802" type="line"/>
    </contour>
  </outline>
</glyph>
<glyph name="quotedblright" format="1">
  <advance width="1789"/>
  <unicode hex="201D"/>
  <outline>
    <contour>
      <point x="376" y="1802" type="line"/>
      <point x="498" y="2319" type="line"/>
      <point x="704" y="2319" type="line"/>
      <point x="532" y="1802" type="line"/>
    </contour>
    <contour>
      <point x="746" y="1802" type="line"/>
      <point x="861" y="2319" type="line"/>
      <point x="1074" y="2319" type="line"/>
      <point x="894" y="1802" type="line"/>
    </contour>
  </outline>
</glyph>
<glyph name="bullet" format="1">
  <advance width="1718"/>
  <unicode hex="2022"/>
  <outline>
    <contour>
      <point x="667" y="678" type="curve" smooth="yes"/>
      <point x="501" y="678"/>
      <point x="375" y="776"/>
      <point x="317" y="901" type="curve" smooth="yes"/>
      <point x="297" y="944"/>
      <point x="287" y="992"/>
      <point x="287" y="1041" type="curve" smooth="yes"/>
      <point x="287" y="1215"/>
      <point x="407" y="1330"/>
      <point x="535" y="1382" type="curve"/>
      <point x="578" y="1403"/>
      <point x="625" y="1411"/>
      <point x="672" y="1411" type="curve" smooth="yes"/>
      <point x="837" y="1411"/>
      <point x="962" y="1312"/>
      <point x="1020" y="1189" type="curve"/>
      <point x="1042" y="1145"/>
      <point x="1052" y="1098"/>
      <point x="1052" y="1049" type="curve" smooth="yes"/>
      <point x="1052" y="935"/>
      <point x="997" y="845"/>
      <point x="933" y="787" type="curve"/>
      <point x="868" y="726"/>
      <point x="774" y="678"/>
    </contour>
  </outline>
</glyph>
<glyph name="fraction" format="1">
  <advance width="584"/>
  <unicode hex="2044"/>
  <outline>
    <contour>
      <point x="-583" y="0" type="line"/>
      <point x="407" y="1686" type="line"/>
      <point x="582" y="1686" type="line"/>
      <point x="-406" y="0" type="line"/>
    </contour>
  </outline>
</glyph>
<glyph name="Euro" format="1">
  <advance width="1370"/>
  <unicode hex="20AC"/>
  <outline>
    <contour>
      <point x="1000" y="466" type="line"/>
      <point x="-5" y="466" type="line"/>
      <point x="18" y="628" type="line"/>
      <point x="219" y="628" type="line"/>
      <point x="219" y="814" type="line"/>
      <point x="-9" y="814" type="line"/>
      <point x="17" y="976" type="line"/>
      <point x="1062" y="976" type="line"/>
      <point x="1038" y="814" type="line"/>
      <point x="346" y="814" type="line"/>
      <point x="346" y="628" type="line"/>
      <point x="1023" y="628" type="line"/>
    </contour>
    <component base="C" xOffset="30"/>
  </outline>
</glyph>
<glyph name="radical" format="1">
  <advance width="2242"/>
  <unicode hex="221A"/>
  <outline>
    <contour>
      <point x="742" y="-269" type="line"/>
      <point x="388" y="721" type="line"/>
      <point x="186" y="688" type="line"/>
      <point x="163" y="819" type="line"/>
      <point x="500" y="879" type="line"/>
      <point x="742" y="162" type="line"/>
      <point x="804" y="-41" type="line"/>
      <point x="846" y="165" type="line"/>
      <point x="1251" y="1784" type="line"/>
      <point x="1403" y="1784" type="line"/>
      <point x="886" y="-269" type="line"/>
    </contour>
  </outline>
</glyph>
<glyph name="a.alt" format="1">
  <advance width="2082"/>
  <outline>
    <contour>
      <point x="677" y="-40" type="curve" smooth="yes"/>
      <point x="806" y="-40"/>
      <point x="973" y="1"/>
      <point x="1074" y="181" type="curve"/>
      <point x="1106" y="40"/>
      <point x="1244" y="-18"/>
      <point x="1346" y="-18" type="curve"/>
      <point x="1386" y="150" type="line"/>
      <point x="1325" y="150"/>
      <point x="1239" y="185"/>
      <point x="1239" y="322" type="curve" smooth="yes"/>
      <point x="1239" y="596" type="line" smooth="yes"/>
      <point x="1239" y="1077"/>
      <point x="1006" y="1221"/>
      <point x="741" y="1221" type="curve" smooth="yes"/>
      <point x="392" y="1221"/>
      <point x="165" y="978"/>
      <point x="165" y="567" type="curve" smooth="yes"/>
      <point x="165" y="212"/>
      <point x="388" y="-40"/>
    </contour>
    <contour>
      <point x="697" y="124" type="curve" smooth="yes"/>
      <point x="501" y="124"/>
      <point x="361" y="313"/>
      <point x="361" y="578" type="curve" smooth="yes"/>
      <point x="361" y="881"/>
      <point x="505" y="1059"/>
      <point x="746" y="1059" type="curve" smooth="yes"/>
      <point x="937" y="1059"/>
      <point x="1046" y="943"/>
      <point x="1046" y="602" type="curve" smooth="yes"/>
      <point x="1046" y="306"/>
      <point x="969" y="124"/>
    </contour>
  </outline>
</glyph>
<glyph name="k.alt" format="1">
  <advance width="1171"/>
  <outline>
    <contour>
      <point x="1167" y="195" type="curve"/>
      <point x="1130" y="3" type="line"/>
      <point x="1012" y="-42"/>
      <point x="895" y="-42"/>
      <point x="780" y="123" type="curve"/>
      <point x="618" y="362" type="line"/>
      <point x="390" y="42" type="line" smooth="yes"/>
      <point x="314" y="-65"/>
      <point x="162" y="-27"/>
      <point x="162" y="102" type="curve" smooth="yes"/>
      <point x="162" y="1470" type="line"/>
      <point x="404" y="1470" type="line"/>
      <point x="404" y="389" type="line"/>
      <point x="824" y="1026" type="line"/>
      <point x="1046" y="965" type="line"/>
      <point x="762" y="539" type="line"/>
      <point x="932" y="290" type="line"/>
      <point x="1038" y="155"/>
      <point x="1054" y="165"/>
    </contour>
  </outline>
</glyph>
<glyph name="uniF6C3" format="1">
  <advance width="1065"/>
  <outline>
    <contour>
      <point x="204" y="-1062" type="line"/>
      <point x="357" y="-1062" type="line"/>
      <point x="548" y="-519" type="line"/>
      <point x="329" y="-519" type="line"/>
    </contour>
  </outline>
</glyph>
